<?xml version="1.0" encoding="UTF-8"?>
<!DOCTYPE svg PUBLIC "-//W3C//DTD SVG 1.1//EN" "http://www.w3.org/Graphics/SVG/1.1/DTD/svg11.dtd">
<!-- Creator: CorelDRAW -->
<svg xmlns="http://www.w3.org/2000/svg" xml:space="preserve" width="783mm" height="196mm" version="1.1" style="shape-rendering:geometricPrecision; text-rendering:geometricPrecision; image-rendering:optimizeQuality; fill-rule:evenodd; clip-rule:evenodd"
viewBox="0 0 78300 19600"
 xmlns:xlink="http://www.w3.org/1999/xlink"
 xmlns:xodm="http://www.corel.com/coreldraw/odm/2003">
 <defs>
  <style type="text/css">
   <![CDATA[
    .fil0 {fill:#76C9DE}
    .fil1 {fill:#0A3C43;fill-rule:nonzero}
   ]]>
  </style>
 </defs>
 <g id="Слой_x0020_1">
  <metadata id="CorelCorpID_0Corel-Layer"/>
  <g id="_3156909434016">
   <path class="fil0" d="M13280.74 4430.09c7334.95,0 13281.13,2404.19 13281.13,5370.04 0,1374.87 -1278.48,2628.87 -3380.42,3578.68 -1557.05,3614.57 -5402.95,6171.97 -9900.71,6171.97 -4497.13,0 -8341.54,-2557.13 -9898.91,-6170.96 -2102.89,-950.03 -3382.23,-2204.39 -3382.23,-3579.69 0,-1374.93 1278.49,-2628.81 3380.42,-3578.68 1556.89,-3614.57 5402.95,-6171.97 9900.72,-6171.97 4095.81,0 7650.53,2121.1 9429.06,5229.61 -660.39,-255.98 -1350.33,-475.12 -2058.43,-660.86 -1581.01,-2542.33 -4291.57,-4219.47 -7370.63,-4219.47 -5925.58,0 -9743.94,5851.34 -8638.95,11368.09 -642.28,-166.94 -1288.72,-363.18 -1900,-621.24 -175.2,-1159.89 -121.68,-2349.88 157.36,-3489.43 -1602.05,598.61 -2550.27,1340.48 -2550.27,2143.95 0,1985.58 5789.78,3595.19 12931.86,3595.19 2878.94,0 5537.84,-261.63 7686.58,-703.95 -192.83,587.43 -445.3,1154.2 -755.55,1690.13 -4511.82,1118.57 -10316.78,1072.4 -14769.7,-246.45 1472.38,3010.26 4429.49,5066.45 7838.67,5066.45 5136.58,0 8865.06,-4501.81 8832.89,-9471.4 -1331.68,-399.07 -2706.88,-635.25 -4085.8,-797.4 -1574.2,-185.11 -3161.44,-265.68 -4746.19,-265.68l0 -1774.8c1652,0 3312.42,84.88 4953.45,277.87 1831.99,215.36 3881.21,568.37 5585.55,1284.88 174.51,1158.88 120.51,2350.36 -158.21,3488.74 1601.89,-598.51 2550.16,-1340.21 2550.16,-2143.58 0,-1985.63 -5789.78,-3595.24 -12931.85,-3595.24 -2878.94,0 -5537.84,261.68 -7686.69,704 192.83,-587.48 445.3,-1154.2 755.49,-1690.13 2017.64,-500.2 4391.05,-788.67 6931.2,-788.67z"/>
   <path class="fil1" d="M49787.13 10596.89c2058.05,0 2892.09,-1497.14 2892.09,-3412.1 0,-2069.02 -834.04,-3568.83 -2892.09,-3568.83 -2058.05,0 -2892.1,1499.81 -2892.1,3568.83 0,1914.96 834.05,3412.1 2892.1,3412.1zm24225.44 -7021.13l0 153.15c-369.89,43.14 -675.35,156.94 -690.47,453.07l0.9 3819.23c0.11,293.58 0.75,583.11 14.49,876.69 66.03,1411.3 329.15,1446.77 1193.87,1446.77 258.43,0 632.32,1.01 1046.09,0 419.74,-1.07 880.59,-4.58 1278.54,-63.75 709.22,-105.49 886.23,-144.84 1265.71,-772.21l162.58 0 -373.41 1148.34 -6214.84 0.05 0 -153.21c370.8,-43.18 676.9,-157.46 690.63,-455.25l0 -5844.58c-13.79,-297.68 -319.83,-411.91 -690.63,-455.15l0 -153.15 2316.54 0zm-3759.26 6497.82c215.14,341.14 334.38,421.92 713.8,466.12l0 153.21 -2575.67 0 0 -153.21c379.43,-44.2 862.16,-60.71 670.72,-467.77 -321.8,-698.09 -611.29,-1300.27 -949.6,-1990.85l-3444.96 0c-340.07,633.5 -666.99,1201.97 -902.42,1881.58 -151.82,438 168.28,533.69 540.19,577.04l0 153.21 -1980.88 0 0.05 -153.21c412.81,-48.09 545.78,-139.36 834.09,-580.08l3441.56 -6439.67 220.46 0 3432.66 6553.63zm-3798.02 -5325.2l-1644.55 3020.32 3175.72 0c-495.68,-1006.84 -1027.03,-2010.92 -1531.17,-3020.32zm-11017.37 -568.79c0,-313.55 -311.9,-432.15 -691.33,-476.4l0 -153.15 3610.53 0c1227.89,0 3242.76,129.61 3242.76,1728.95 0,887.61 -937.41,1322.36 -1699.66,1533.67 1028.94,207.74 2362.07,730.63 2362.07,1866.5 0,1599.39 -2014.92,1983.66 -3242.76,1983.66l-3581.45 0 -0.16 -6483.23zm919.35 2828.35l0 3342.5 2135.43 0c1053.44,-7.67 2629.08,-340.49 2642.71,-1671.28 -13.63,-1330.72 -1589.27,-1663.55 -2642.71,-1671.22l-2135.43 0zm0 -312.38l1473.02 0c1053.49,-7.67 2629.13,-85.79 2642.71,-1416.57 -13.58,-1330.78 -1589.22,-1408.96 -2642.71,-1416.57l-1473.02 0 0 2833.14zm-15298.24 -3119.8l0 153.15c-369.89,43.14 -675.35,156.94 -690.52,453.07l0.95 3819.23c0.11,293.58 0.75,583.11 14.49,876.69 66.03,1411.3 329.15,1446.77 1193.82,1446.77 258.48,0 632.37,1.01 1046.14,0 419.74,-1.07 880.59,-4.58 1278.54,-63.75 709.22,-105.49 886.18,-144.84 1265.71,-772.21l162.58 0 -373.41 1148.34 -6214.84 0.05 0 -153.21c370.8,-43.18 676.9,-157.46 690.58,-455.25l0 -5844.58c-13.74,-297.68 -319.78,-411.91 -690.58,-455.15l0 -153.15 2316.54 0zm-5448.27 -30.57c713.69,191.66 1268.58,472.08 1610.31,751.07l-411.65 1089.5c-158.9,-376.76 -268.6,-614.38 -570.44,-918.24 -560.16,-563.94 -1435.9,-854.91 -2258.6,-854.91 -1803.88,-41.33 -3009.3,1564.08 -3009.3,3567.07 0,2146.08 1091.84,3420.94 3074.06,3420.94 812.36,0 2146.87,-262.43 2146.87,-1175.87 0,-704.69 -0.05,-1077.19 -0.05,-1759.73 0,-313.55 -311.85,-432.14 -691.27,-476.34l0 -153.21 2426.29 0 0 153.21c-379.42,44.2 -691.32,162.79 -691.32,476.34l-3.84 2199.97c-974.84,682.33 -2009,1048.01 -3200.48,1048.01 -2253.01,0 -4219.25,-1521.21 -4219.25,-3887.38 0,-1270.08 661.72,-2235.7 1506.36,-2865.2 1317.09,-981.34 2756.24,-1027.67 4292.31,-615.23zm14176.37 7364.03c-2036.38,0 -4051.14,-1446.29 -4051.14,-3823.48 0,-2333.15 2014.76,-3782.16 4051.14,-3782.16 2036.38,0 4051.08,1449.01 4051.08,3782.16 0,2377.19 -2014.7,3823.48 -4051.08,3823.48z"/>
   <path class="fil1" d="M29812.2 16263.34l0 -2596.06 315.25 0 0 2596.06 -315.25 0zm3337.71 0l-252.15 0 -1620.64 -2039.73 0 2039.73 -296.72 0 0 -2596.06 252.2 0 1620.64 2047.19 0 -2047.19 296.67 0 0 2596.06zm426.5 -2299.34l0 -296.72 2132.5 0 0 296.72 -908.6 0 0 2299.34 -315.25 0 0 -2299.34 -908.65 0zm2558.94 2299.34l0 -2596.06 1464.93 0 0 296.72 -1149.67 0 0 838.14 1038.37 0 0 296.73 -1038.37 0 0 867.8 1186.73 0 0 296.67 -1501.99 0zm2447.7 0l-315.25 0 0 -2596.06c54.48,0 179.3,-1.17 374.63,-3.68 195.33,-2.5 302.85,-3.67 322.66,-3.67 615.6,0 923.4,257.1 923.4,771.36 0,190.38 -55.01,350.46 -165.03,480.23 -110.02,129.83 -242.89,214.51 -398.65,254.07l864.08 1097.75 -385.66 0 -797.35 -1038.42 -422.83 0 0 1038.42zm363.45 -2306.74c-79.08,0 -200.23,2.45 -363.45,7.4l0 964.25 382.04 0c158.21,0 296.03,-45.16 413.5,-135.37 117.43,-90.27 176.11,-209.55 176.11,-357.91 0,-318.93 -202.68,-478.37 -608.2,-478.37zm3875.51 2306.74l-252.2 0 -1620.64 -2039.73 0 2039.73 -296.72 0 0 -2596.06 252.26 0 1620.63 2047.19 0 -2047.19 296.67 0 0 2596.06zm445.03 0l1116.28 -2610.87 270.74 0 1116.28 2610.87 -337.46 0 -333.79 -786.22 -1183.06 0 -330 786.22 -318.99 0zm1242.39 -2191.77l-467.3 1108.83 934.59 0 -467.29 -1108.83zm1097.74 -107.57l0 -296.72 2132.45 0 0 296.72 -908.6 0 0 2299.34 -315.2 0 0 -2299.34 -908.65 0zm2633.13 2299.34l0 -2596.06 315.2 0 0 2596.06 -315.2 0zm964.19 -1298.03c0,-378.25 124.88,-695.32 374.58,-951.25 249.75,-255.88 566.23,-383.85 949.44,-383.85 380.76,0 696.6,124.88 947.52,374.58 250.98,249.7 376.45,569.91 376.45,960.52 0,383.2 -126.11,701.55 -378.26,954.98 -252.2,253.43 -567.46,380.11 -945.71,380.11 -380.76,0 -696.6,-124.87 -947.58,-374.52 -250.92,-249.76 -376.44,-569.91 -376.44,-960.57zm333.79 0c0,294.22 95.16,540.83 285.54,739.89 190.43,199.01 425.33,298.53 704.69,298.53 291.72,0 529.7,-98.89 713.9,-296.67 184.2,-197.83 276.28,-445.08 276.28,-741.75 0,-299.12 -95.16,-547.01 -285.54,-743.57 -190.38,-196.55 -425.22,-294.86 -704.64,-294.86 -284.32,0 -520.44,97.67 -708.37,293 -187.87,195.33 -281.86,443.81 -281.86,745.43zm5058.57 1298.03l-252.21 0 -1620.63 -2039.73 0 2039.73 -296.73 0 0 -2596.06 252.21 0 1620.63 2047.19 0 -2047.19 296.73 0 0 2596.06zm445.03 0l1116.28 -2610.87 270.73 0 1116.28 2610.87 -337.46 0 -333.78 -786.22 -1183.06 0 -330.06 786.22 -318.93 0zm1242.38 -2191.77l-467.29 1108.83 934.58 0 -467.29 -1108.83zm1705.95 2191.77l0 -2596.06 315.2 0 0 2299.39 1279.5 0 0 296.67 -1594.7 0zm4528.22 0l0 -1175.6 -1427.86 0 0 1175.6 -315.2 0 0 -2596.06 315.2 0 0 1123.73 1427.86 0 0 -1123.73 315.2 0 0 2596.06 -315.2 0zm890.07 -1298.03c0,-378.25 124.87,-695.32 374.57,-951.25 249.71,-255.88 566.19,-383.85 949.39,-383.85 380.76,0 696.6,124.88 947.58,374.58 250.92,249.7 376.39,569.91 376.39,960.52 0,383.2 -126.11,701.55 -378.26,954.98 -252.2,253.43 -567.4,380.11 -945.71,380.11 -380.7,0 -696.54,-124.87 -947.52,-374.52 -250.93,-249.76 -376.44,-569.91 -376.44,-960.57zm333.78 0c0,294.22 95.16,540.83 285.54,739.89 190.38,199.01 425.28,298.53 704.64,298.53 291.77,0 529.7,-98.89 713.9,-296.67 184.21,-197.83 276.28,-445.08 276.28,-741.75 0,-299.12 -95.16,-547.01 -285.54,-743.57 -190.38,-196.55 -425.22,-294.86 -704.64,-294.86 -284.31,0 -520.44,97.67 -708.37,293 -187.87,195.33 -281.81,443.81 -281.81,745.43zm4016.42 634.18c0,-86.53 -23.54,-161.94 -70.46,-226.21 -47.02,-64.28 -107.57,-116.84 -181.75,-157.63 -74.18,-40.79 -156.4,-79.72 -246.61,-116.78 -90.26,-37.12 -180.53,-77.33 -270.74,-120.57 -90.21,-43.29 -172.43,-92.12 -246.61,-146.49 -74.18,-54.38 -134.78,-126.11 -181.7,-215.09 -47.02,-88.99 -70.5,-191.6 -70.5,-307.8 0,-192.88 70.5,-354.18 211.41,-484.01 140.91,-129.78 331.28,-194.7 571.13,-194.7 148.31,0 286.18,24.77 413.51,74.19 127.33,49.41 228.08,114.97 302.21,196.55l-170.57 237.35c-140.91,-140.91 -316.48,-211.42 -526.61,-211.42 -143.41,0 -257.16,34.62 -341.19,103.85 -84.04,69.23 -126.11,161.99 -126.11,278.19 0,86.53 23.49,161.94 70.46,226.22 46.97,64.27 107.57,116.19 181.75,155.76 74.13,39.57 156.35,77.27 246.61,113.11 90.21,35.84 180.47,74.76 270.74,116.78 90.21,42.07 172.43,89.68 246.61,142.82 74.18,53.15 134.73,125.47 181.7,216.95 46.97,91.49 70.45,196.56 70.45,315.21 0,210.18 -80.94,380.17 -242.88,509.94 -161.94,129.83 -362.81,194.69 -602.66,194.69 -168.12,0 -331.29,-35.2 -489.55,-105.7 -158.22,-70.46 -268.24,-164.98 -330.06,-283.68l181.75 -215.09c74.13,96.39 170.62,171.8 289.27,226.22 118.64,54.37 236.12,81.58 352.31,81.58 143.41,0 263.92,-35.89 361.59,-107.57 97.66,-71.67 146.5,-170.56 146.5,-296.67zm1223.79 663.85l-315.25 0 0 -2596.06c47.02,0 157.63,-1.17 331.98,-3.68 174.29,-2.5 289.85,-3.67 346.72,-3.67 341.19,0 586.58,75.99 736.17,228.03 149.58,152.09 224.35,344.27 224.35,576.72 0,227.44 -80.94,420.27 -242.89,578.54 -161.94,158.21 -392.52,237.34 -691.64,237.34 -143.41,0 -273.24,-4.95 -389.44,-14.85l0 997.63zm393.12 -2306.74c-98.9,0 -229.95,2.45 -393.12,7.4l0 1001.31c140.96,12.41 267.01,18.58 378.31,18.58 190.38,0 339.97,-46.38 448.71,-139.09 108.79,-92.71 163.16,-220.68 163.16,-383.85 0,-158.21 -49.42,-281.86 -148.31,-370.85 -98.89,-89.03 -248.47,-133.5 -448.75,-133.5zm1579.89 2306.74l0 -2596.06 315.2 0 0 2596.06 -315.2 0zm815.88 -2299.34l0 -296.72 2132.45 0 0 296.72 -908.59 0 0 2299.34 -315.26 0 0 -2299.34 -908.6 0zm1969.28 2299.34l1116.28 -2610.87 270.74 0 1116.28 2610.87 -337.46 0 -333.79 -786.22 -1183.06 0 -330.06 786.22 -318.93 0zm1242.39 -2191.77l-467.29 1108.83 934.58 0 -467.29 -1108.83zm1705.94 2191.77l0 -2596.06 315.2 0 0 2299.39 1279.5 0 0 296.67 -1594.7 0z"/>
  </g>
 </g>
</svg>
